<svg width="44" height="44" viewBox="0 0 44 44" fill="none" xmlns="http://www.w3.org/2000/svg">
<g clip-path="url(#clip0_6_1530)">
<path d="M22 3.66797C11.88 3.66797 3.66663 11.8813 3.66663 22.0013C3.66663 32.1213 11.88 40.3346 22 40.3346C32.12 40.3346 40.3333 32.1213 40.3333 22.0013C40.3333 11.8813 32.12 3.66797 22 3.66797ZM22 9.16797C25.0433 9.16797 27.5 11.6246 27.5 14.668C27.5 17.7113 25.0433 20.168 22 20.168C18.9566 20.168 16.5 17.7113 16.5 14.668C16.5 11.6246 18.9566 9.16797 22 9.16797ZM22 35.2013C17.4166 35.2013 13.365 32.8546 11 29.298C11.055 25.6496 18.3333 23.6513 22 23.6513C25.6483 23.6513 32.945 25.6496 33 29.298C30.635 32.8546 26.5833 35.2013 22 35.2013Z" fill="#999999"/>
</g>
<defs>
<clipPath id="clip0_6_1530">
<rect width="44" height="44" fill="white"/>
</clipPath>
</defs>
</svg>
