<svg width="170" height="47" viewBox="0 0 170 47" fill="none" xmlns="http://www.w3.org/2000/svg">
<rect x="8.85706" y="3.20703" width="19.2016" height="17.7924" fill="#CCCCCC"/>
<ellipse cx="9.22892" cy="12.1032" rx="9.22892" ry="8.89622" fill="white"/>
<rect width="19.2016" height="17.7924" transform="matrix(-1 0 0 1 19.2017 25.9531)" fill="#CCCCCC"/>
<ellipse cx="9.22892" cy="8.89622" rx="9.22892" ry="8.89622" transform="matrix(-1 0 0 1 28.0588 25.9531)" fill="white"/>
<ellipse cx="42.2231" cy="12.1032" rx="9.22892" ry="8.89622" fill="white"/>
<ellipse cx="42.2231" cy="34.8493" rx="9.22892" ry="8.89622" fill="white"/>
<path fill-rule="evenodd" clip-rule="evenodd" d="M95.1269 2.3267V0H98.3652C99.7599 0 99.9744 0.516967 99.9744 2.3267V7.44567L101.101 6.35983C102.656 5.32569 105.355 4.84699 107.323 5.73935C109.47 6.71303 110.532 8.26194 111.078 10.7032C112.033 14.9727 110.219 18.5405 106.894 19.907C104.825 20.7573 102.22 20.3724 100.886 19.1831C100.274 18.6372 99.8671 18.149 99.8671 18.149V20.1138H96.8706V2.3267H95.1269ZM107.541 15.9256C108.986 13.5988 108.348 10.0164 106.626 8.53151C105.607 7.65249 103.528 7.41667 102.174 8.16956C99.1333 9.85957 99.1652 15.5254 102.013 17.3734C103.659 18.442 106.41 17.7466 107.541 15.9256Z" fill="white"/>
<path d="M128.887 5.68539H130.967V1.73034H133.768V5.68539H137.308V7.91103H133.768V11.5823C133.69 15.9854 133.954 16.6495 135.377 17.3734C135.765 17.5707 136.78 17.5333 137.336 17.5127C137.462 17.5081 137.564 17.5043 137.63 17.5043V20.2173H135.914C135.109 20.2173 134.085 19.9731 133.071 19.4417C132.274 19.0246 130.71 17.5802 130.764 15.4086V7.91103H128.887V5.68539Z" fill="white"/>
<path d="M64.9472 10.7993C63.9594 8.69939 65.0592 6.46379 67.5829 5.60802C69.895 4.82418 73.034 5.2167 74.4952 6.51494C75.0859 7.03973 75.1389 7.97611 75.1389 8.4798V9.56575H72.5105V8.94527C72.5105 7.44567 69.6621 7.10754 68.2729 7.91103C66.9319 8.68663 67.2537 10.1861 69.0775 10.91C69.1542 10.9404 69.2362 10.973 69.3229 11.0073C70.3995 11.4343 72.1954 12.1464 73.3687 12.668C75.2925 13.5231 76.0409 15.3443 75.5144 17.2182C75.2653 18.1057 74.7557 18.76 73.6906 19.4933C71.8132 20.786 67.7365 20.6309 65.0545 18.666L64.0889 17.8353L65.5372 15.9256C65.5372 15.9256 65.8279 16.1612 66.3955 16.6399C67.2537 17.3638 68.8103 17.9842 70.0967 17.9938C71.6577 18.0055 72.4476 17.4947 72.6714 16.6399C72.8119 16.1028 72.6989 15.6747 71.9741 15.0983C71.4924 14.7154 69.9894 14.1675 69.9894 14.1675L69.9843 14.1655C69.7194 14.0593 68.5323 13.5832 67.8438 13.2885C66.6637 12.7835 65.4688 11.9084 64.9472 10.7993Z" fill="white"/>
<path fill-rule="evenodd" clip-rule="evenodd" d="M78.1287 10.4381C78.8676 8.26384 80.7326 6.45586 83.185 5.63593C87.2117 4.28973 91.784 6.28009 93.3766 9.9793C94.1557 11.7888 94.1348 13.9712 93.3766 15.667C90.5835 21.9145 81.2271 21.9103 78.3037 15.667C77.6984 14.3744 77.6168 11.9443 78.1287 10.4381ZM90.7392 14.0184C91.2984 12.1323 90.4264 9.3618 88.3344 8.32468C86.457 7.39394 84.0432 7.85973 83.024 8.46653C81.108 9.60732 80.3552 11.9935 80.8248 14.0184C82.0585 19.3393 89.1927 19.2348 90.7392 14.0184Z" fill="white"/>
<path fill-rule="evenodd" clip-rule="evenodd" d="M114.886 6.98036C115.319 6.25083 116.337 5.77387 116.978 5.58427C120.318 4.59724 124.371 5.76739 125.346 7.91103C125.515 8.28207 125.883 9.82418 125.883 12.9783C125.883 13.7304 125.88 14.3578 125.877 14.8813V14.8858L125.877 14.8881C125.864 17.3452 125.863 17.5043 126.261 17.5043H127.76V20.1138H126.097C126.043 20.1137 125.99 20.1137 125.937 20.1136C124.242 20.1124 123.095 20.1115 123.147 17.5043C123.147 17.5043 122.396 18.666 121.806 19.1831C121.216 19.7002 120.063 20.3724 118.48 20.3724C116.41 20.3724 114.437 19.3924 113.653 17.9421C113.15 17.0114 112.955 15.2017 113.802 13.8768C114.735 12.416 117.127 11.2119 120.626 10.9618C121.749 10.8814 122.772 10.9618 122.772 10.9618V9.76404C122.772 8.73834 121.806 7.49738 119.714 7.49738C117.622 7.49738 117.139 7.80762 117.193 9.56565H114.404C114.35 8.37639 114.457 7.70425 114.886 6.98036ZM121.592 16.9597C122.148 16.3798 122.933 15.3051 122.933 13.1851H120.787C118.231 13.2388 116.756 13.909 116.335 14.788C116.013 15.4602 116.094 16.4401 116.71 17.27C117.668 18.5593 120.216 18.3917 121.592 16.9597Z" fill="white"/>
<path d="M103.193 28.3352C104.001 27.5175 104.796 26.8396 106.25 26.5255C107.591 26.2358 109.586 26.5151 110.488 26.9391C112.687 27.9733 112.902 30.2484 112.902 30.8171V38.6766H114.726L114.833 41.1068H111.936C110.166 41.1585 110.112 40.2795 110.112 39.2454V31.903C110.166 30.7655 109.791 29.9382 109.04 29.4211C107.729 28.519 105.577 28.6306 103.997 30.1449C102.576 31.5075 102.281 31.9547 102.281 35.4191V41.1068H99.3678V29.1625H97.499V26.6289H100.618C101.369 26.6289 102.281 27.0942 102.281 28.1284V29.4211L103.193 28.3352Z" fill="white"/>
<path fill-rule="evenodd" clip-rule="evenodd" d="M116.657 35.3156C115.906 31.1274 117.622 27.4045 121.377 26.5255C122.565 26.2473 124.22 26.3187 125.346 26.6289C126.162 26.8535 127.331 27.7148 127.867 28.5937V27.7148C128.189 26.6289 128.779 26.5772 130.925 26.5772H132.373V29.1625H130.925C130.385 29.1625 130.395 29.7527 130.45 32.6905C130.466 33.5431 130.485 34.5934 130.496 35.8844C130.547 42.0373 130.345 42.708 129.799 43.6921C128.756 45.5708 127.029 46.3541 124.703 46.8462C122.503 47.3116 119.607 46.6394 117.729 45.9155L118.328 44.439L118.749 43.5887L120.411 44.1575C122.664 44.8297 124.448 44.5547 125.883 43.7956C127.173 43.1133 127.367 42.5547 127.562 40.9L127.547 38.8317C125.225 41.779 120.816 41.2204 118.749 39.2453C117.506 38.0576 117.034 37.4178 116.657 35.3156ZM127.547 32.8892C127.38 31.1203 126.729 29.6452 125.561 29.1625C123.308 28.2318 120.819 28.8874 119.875 30.662C119.233 31.868 119.31 34.8971 119.875 36.1946C120.668 38.0149 123.197 38.9452 125.025 38.3146C126.87 37.6781 127.796 35.5159 127.547 32.8892Z" fill="white"/>
<path fill-rule="evenodd" clip-rule="evenodd" d="M63.8082 23.3713H65.552V41.1584H68.5485V39.1935C68.5485 39.1935 68.9552 39.6817 69.5676 40.2277C70.9017 41.4169 73.5059 41.8019 75.5754 40.9515C78.9002 39.5851 80.7144 36.0172 79.7593 31.7477C79.213 29.3065 78.1513 27.7576 76.0045 26.7839C74.0366 25.8915 71.3378 26.3702 69.7822 27.4044L68.6557 28.4902V23.3713C68.6557 21.5615 68.4412 21.0445 67.0465 21.0445H63.8082V23.3713ZM76.3045 36.9561C77.7494 34.6293 77.1109 31.047 75.3892 29.5621C74.3701 28.683 72.2916 28.4472 70.9371 29.2001C67.8967 30.8901 67.9286 36.5559 70.7762 38.4039C72.4227 39.4725 75.1737 38.7772 76.3045 36.9561Z" fill="white"/>
<path fill-rule="evenodd" clip-rule="evenodd" d="M83.5678 28.0249C84.0003 27.2954 85.0185 26.8184 85.6598 26.6288C88.9988 25.6418 93.0525 26.8119 94.0277 28.9556C94.1963 29.3266 94.5641 30.8687 94.5641 34.0228C94.5641 34.7782 94.5609 35.4079 94.5582 35.9328C94.5456 38.3897 94.5447 38.5489 94.9425 38.5489H96.4415V41.1584H94.7787C94.7246 41.1583 94.671 41.1582 94.618 41.1582C92.923 41.1569 91.7764 41.1561 91.8284 38.5489C91.8284 38.5489 91.0775 39.7106 90.4874 40.2277C89.8974 40.7447 88.7441 41.4169 87.1617 41.4169C85.091 41.4169 83.1179 40.437 82.3341 38.9867C81.831 38.056 81.6367 36.2463 82.4831 34.9213C83.4163 33.4606 85.8087 32.2565 89.3073 32.0063C90.4302 31.926 91.4529 32.0063 91.4529 32.0063V30.8086C91.4529 29.7829 90.4874 28.5419 88.3954 28.5419C86.3035 28.5419 85.8207 28.8522 85.8743 30.6102H83.085C83.0314 29.4209 83.1387 28.7488 83.5678 28.0249ZM91.5234 34.2298C91.5234 36.3497 90.7393 37.4245 90.1824 38.0044C88.8073 39.4363 86.2588 39.604 85.3011 38.3146C84.6849 37.4848 84.6038 36.5049 84.9256 35.8327C85.3465 34.9537 86.8216 34.2834 89.3778 34.2298H91.5234Z" fill="white"/>
<path d="M160.543 26.4221C159.088 26.7363 158.293 27.4141 157.485 28.2318L156.573 29.3177V28.025C156.573 26.9909 155.661 26.5256 154.91 26.5256H151.791V29.0591H153.66V41.0034H156.573V35.3157C156.573 31.8513 156.869 31.4041 158.29 30.0416C159.869 28.5273 162.022 28.4156 163.332 29.3177C164.083 29.8348 164.458 30.6621 164.405 31.7996V39.142C164.405 40.1761 164.458 41.0551 166.228 41.0034H169.125L169.018 38.5732H167.194V30.7138C167.194 30.145 166.979 27.8699 164.78 26.8357C163.878 26.4118 161.884 26.1324 160.543 26.4221Z" fill="white"/>
<path d="M141.921 41.2641C143.376 40.9499 144.171 40.272 144.979 39.4543L145.891 38.3684V39.6612C145.891 40.6953 146.803 41.1606 147.554 41.1606H150.673V38.627H148.804V26.6828H145.891V32.3705C145.891 35.8348 145.595 36.2821 144.174 37.6446C142.594 39.1589 140.442 39.2706 139.132 38.3684C138.381 37.8514 138.006 37.0241 138.059 35.8865V28.5442C138.059 27.51 138.006 26.6311 136.235 26.6828H133.339L133.446 29.113H135.27V36.9724C135.27 37.5412 135.484 39.8162 137.684 40.8504C138.585 41.2744 140.58 41.5537 141.921 41.2641Z" fill="white"/>
</svg>
