<svg width="20" height="20" viewBox="0 0 20 20" fill="none" xmlns="http://www.w3.org/2000/svg">
<path d="M9.99997 14.418L6.91664 16.7721C6.76386 16.8971 6.59719 16.956 6.41664 16.9488C6.23608 16.9421 6.07636 16.8902 5.93747 16.793C5.79858 16.6957 5.69108 16.5638 5.61497 16.3971C5.5383 16.2305 5.53469 16.0499 5.60414 15.8555L6.79164 12.0013L3.7708 9.85547C3.60414 9.74436 3.49997 9.59853 3.4583 9.41797C3.41664 9.23741 3.42358 9.07075 3.47914 8.91797C3.53469 8.76519 3.63192 8.62964 3.7708 8.5113C3.90969 8.39352 4.07636 8.33464 4.2708 8.33464H7.99997L9.2083 4.33464C9.27775 4.14019 9.38553 3.99075 9.53164 3.8863C9.67719 3.78241 9.8333 3.73047 9.99997 3.73047C10.1666 3.73047 10.3227 3.78241 10.4683 3.8863C10.6144 3.99075 10.7222 4.14019 10.7916 4.33464L12 8.33464H15.7291C15.9236 8.33464 16.0903 8.39352 16.2291 8.5113C16.368 8.62964 16.4653 8.76519 16.5208 8.91797C16.5764 9.07075 16.5833 9.23741 16.5416 9.41797C16.5 9.59853 16.3958 9.74436 16.2291 9.85547L13.2083 12.0013L14.3958 15.8555C14.4652 16.0499 14.4619 16.2305 14.3858 16.3971C14.3091 16.5638 14.2014 16.6957 14.0625 16.793C13.9236 16.8902 13.7639 16.9421 13.5833 16.9488C13.4027 16.956 13.2361 16.8971 13.0833 16.7721L9.99997 14.418Z" fill="#FBBC05"/>
</svg>
