<svg width="20" height="18" viewBox="0 0 20 18" fill="none" xmlns="http://www.w3.org/2000/svg">
<g clip-path="url(#clip0_297_275)">
<path d="M13.6484 1.5H5.91406C3.77827 1.5 2.04688 3.17893 2.04688 5.25V12.75C2.04688 14.8211 3.77827 16.5 5.91406 16.5H13.6484C15.7842 16.5 17.5156 14.8211 17.5156 12.75V5.25C17.5156 3.17893 15.7842 1.5 13.6484 1.5Z" stroke="currentColor" stroke-width="2" stroke-linecap="round" stroke-linejoin="round"/>
<path d="M12.8738 8.5287C12.9692 9.15289 12.8593 9.79037 12.5596 10.3505C12.2599 10.9106 11.7857 11.3648 11.2044 11.6485C10.6231 11.9322 9.96444 12.0309 9.32198 11.9307C8.67951 11.8304 8.086 11.5363 7.62587 11.0901C7.16573 10.6439 6.8624 10.0684 6.75902 9.44536C6.65564 8.82237 6.75747 8.18362 7.05003 7.61998C7.3426 7.05634 7.81099 6.59651 8.38859 6.30588C8.96619 6.01526 9.62359 5.90864 10.2673 6.0012C10.9239 6.09562 11.5317 6.3923 12.0011 6.84743C12.4704 7.30257 12.7764 7.89201 12.8738 8.5287Z" stroke="currentColor" stroke-width="2" stroke-linecap="round" stroke-linejoin="round"/>
<ellipse cx="14.0352" cy="4.875" rx="1.16016" ry="1.125" fill="#1A1A1A"/>
</g>
<defs>
<clipPath id="clip0_297_275">
<rect width="18.5625" height="18" fill="#1A1A1A" transform="translate(0.5)"/>
</clipPath>
</defs>
</svg>
