<svg width="147" height="42" viewBox="0 0 147 42" fill="none" xmlns="http://www.w3.org/2000/svg">
<rect x="7.69836" y="2.86328" width="16.6896" height="15.8996" fill="#012846"/>
<ellipse cx="8.02159" cy="10.8131" rx="8.02159" ry="7.94981" fill="#F5333F"/>
<rect width="16.6896" height="15.8996" transform="matrix(-1 0 0 1 16.6898 23.1875)" fill="#012846"/>
<ellipse cx="8.02159" cy="7.94981" rx="8.02159" ry="7.94981" transform="matrix(-1 0 0 1 24.3881 23.1875)" fill="#F5333F"/>
<ellipse cx="36.6994" cy="10.8131" rx="8.02159" ry="7.94981" fill="#F5333F"/>
<ellipse cx="36.6994" cy="31.1373" rx="8.02159" ry="7.94981" fill="#F5333F"/>
<path fill-rule="evenodd" clip-rule="evenodd" d="M82.6823 2.07918V0H85.497C86.7092 0 86.8957 0.46197 86.8957 2.07918V6.65358L87.8748 5.68325C89.2269 4.75913 91.5727 4.33135 93.2831 5.12878C95.1491 5.99888 96.0718 7.38301 96.5467 9.56456C97.3768 13.3798 95.8 16.5681 92.9101 17.7892C91.1114 18.5491 88.8479 18.2051 87.6883 17.1423C87.156 16.6545 86.8025 16.2182 86.8025 16.2182V17.9741H84.198V2.07918H82.6823ZM93.4726 14.2314C94.7284 12.1521 94.1735 8.95084 92.677 7.6239C91.7912 6.8384 89.9846 6.62766 88.8073 7.30046C86.1646 8.81068 86.1924 13.8737 88.6674 15.5251C90.0986 16.4801 92.4897 15.8587 93.4726 14.2314Z" fill="black"/>
<path d="M112.026 5.08056H113.834V1.54626H116.268V5.08056H119.345V7.06943H116.268V10.3501C116.2 14.2848 116.43 14.8783 117.667 15.5251C118.004 15.7015 118.886 15.668 119.37 15.6497C119.479 15.6455 119.568 15.6422 119.625 15.6422V18.0665H118.133C117.434 18.0665 116.544 17.8483 115.662 17.3734C114.97 17.0007 113.611 15.71 113.657 13.7693V7.06943H112.026V5.08056Z" fill="black"/>
<path d="M56.4508 9.65041C55.5922 7.77392 56.5481 5.77615 58.7417 5.01142C60.7513 4.31097 63.4797 4.66173 64.7497 5.82187C65.2631 6.29082 65.3092 7.12759 65.3092 7.57769V8.54812H63.0246V7.99364C63.0246 6.65357 60.5489 6.35142 59.3414 7.06943C58.1758 7.76252 58.4556 9.10247 60.0408 9.74938C60.1074 9.77657 60.1787 9.80563 60.254 9.83635C61.1898 10.2179 62.7508 10.8543 63.7706 11.3204C65.4427 12.0845 66.0932 13.7119 65.6355 15.3865C65.4191 16.1795 64.9761 16.7642 64.0504 17.4196C62.4185 18.5747 58.8752 18.4361 56.544 16.6803L55.7048 15.9379L56.9636 14.2314C56.9636 14.2314 57.2163 14.4419 57.7096 14.8697C58.4556 15.5166 59.8085 16.071 60.9266 16.0796C62.2834 16.09 62.97 15.6335 63.1645 14.8697C63.2867 14.3897 63.1884 14.0072 62.5584 13.4921C62.1398 13.1499 60.8334 12.6604 60.8334 12.6604L60.8289 12.6585C60.5987 12.5636 59.5669 12.1382 58.9684 11.8749C57.9427 11.4235 56.9041 10.6416 56.4508 9.65041Z" fill="black"/>
<path fill-rule="evenodd" clip-rule="evenodd" d="M67.9078 9.32769C68.5501 7.3847 70.1712 5.76907 72.3027 5.03636C75.8026 3.83337 79.7767 5.61199 81.1611 8.91767C81.8383 10.5347 81.8201 12.4849 81.1611 14.0003C78.7333 19.5832 70.6009 19.5794 68.06 14.0003C67.5338 12.8452 67.4629 10.6736 67.9078 9.32769ZM78.8686 12.5271C79.3547 10.8416 78.5968 8.36586 76.7785 7.43908C75.1467 6.60735 73.0486 7.02359 72.1628 7.56584C70.4974 8.58526 69.8431 10.7176 70.2512 12.5271C71.3236 17.2819 77.5245 17.1885 78.8686 12.5271Z" fill="black"/>
<path fill-rule="evenodd" clip-rule="evenodd" d="M99.857 6.23776C100.233 5.58585 101.118 5.15963 101.675 4.9902C104.578 4.10817 108.101 5.15384 108.949 7.06943C109.095 7.40099 109.415 8.77906 109.415 11.5976C109.415 12.2697 109.412 12.8304 109.41 13.2982V13.3022L109.41 13.3043C109.399 15.5 109.398 15.6422 109.744 15.6422H111.047V17.9741H109.601C109.554 17.9739 109.508 17.9739 109.462 17.9739C107.988 17.9728 106.992 17.972 107.037 15.6422C107.037 15.6422 106.384 16.6803 105.871 17.1423C105.359 17.6044 104.356 18.2051 102.981 18.2051C101.181 18.2051 99.4659 17.3294 98.7847 16.0334C98.3474 15.2017 98.1786 13.5845 98.9142 12.4005C99.7253 11.0952 101.805 10.0192 104.846 9.79563C105.822 9.72384 106.711 9.79563 106.711 9.79563V8.72531C106.711 7.80873 105.871 6.69978 104.053 6.69978C102.235 6.69978 101.815 6.97702 101.862 8.54803H99.4374C99.3908 7.48529 99.484 6.88465 99.857 6.23776ZM105.685 15.1555C106.169 14.6373 106.85 13.6769 106.85 11.7824H104.986C102.764 11.8304 101.482 12.4293 101.116 13.2148C100.836 13.8155 100.907 14.6912 101.442 15.4327C102.275 16.5849 104.49 16.4351 105.685 15.1555Z" fill="black"/>
<path d="M89.6931 25.3208C90.3953 24.5901 91.0864 23.9844 92.3506 23.7036C93.5162 23.4448 95.2502 23.6944 96.0339 24.0733C97.9454 24.9974 98.1319 27.0304 98.1319 27.5387V34.562H99.7171L99.8104 36.7337H97.2927C95.7541 36.7799 95.7075 35.9944 95.7075 35.0703V28.5091C95.7541 27.4925 95.4278 26.7532 94.7751 26.2912C93.6363 25.485 91.7656 25.5848 90.3925 26.938C89.1574 28.1556 88.9005 28.5553 88.9005 31.6511V36.7337H86.3685V26.0601H84.7441V23.7961H87.4552C88.1079 23.7961 88.9005 24.2119 88.9005 25.136V26.2912L89.6931 25.3208Z" fill="black"/>
<path fill-rule="evenodd" clip-rule="evenodd" d="M101.396 31.5586C100.743 27.8159 102.235 24.4891 105.498 23.7036C106.531 23.4551 107.969 23.5188 108.949 23.7961C109.657 23.9968 110.674 24.7664 111.14 25.5518V24.7664C111.42 23.7961 111.932 23.7499 113.797 23.7499H115.056V26.0601H113.797C113.328 26.0601 113.337 26.5875 113.384 29.2128C113.398 29.9747 113.415 30.9133 113.424 32.0669C113.469 37.5653 113.293 38.1646 112.818 39.044C111.912 40.7228 110.411 41.4228 108.389 41.8626C106.477 42.2784 103.96 41.6778 102.328 41.0309L102.848 39.7114L103.214 38.9516L104.659 39.4599C106.617 40.0605 108.168 39.8148 109.415 39.1365C110.536 38.5268 110.705 38.0276 110.874 36.5489L110.862 34.7006C108.843 37.3344 105.011 36.8352 103.214 35.0703C102.133 34.0089 101.723 33.4372 101.396 31.5586ZM110.862 29.3904C110.716 27.8097 110.15 26.4914 109.135 26.0601C107.177 25.2284 105.014 25.8143 104.193 27.4001C103.635 28.4778 103.701 31.1847 104.193 32.3441C104.883 33.9708 107.08 34.8021 108.669 34.2386C110.273 33.6698 111.078 31.7376 110.862 29.3904Z" fill="black"/>
<path fill-rule="evenodd" clip-rule="evenodd" d="M55.4608 20.8849H56.9764V36.7798H59.5809V35.024C59.5809 35.024 59.9345 35.4603 60.4668 35.9481C61.6263 37.0109 63.8899 37.3549 65.6886 36.595C68.5785 35.3739 70.1553 32.1856 69.3252 28.3703C68.8503 26.1888 67.9275 24.8046 66.0615 23.9345C64.3511 23.1371 62.0053 23.5649 60.6533 24.489L59.6742 25.4593V20.8849C59.6742 19.2677 59.4877 18.8058 58.2755 18.8058H55.4608V20.8849ZM66.3224 33.0246C67.5782 30.9454 67.0232 27.7441 65.5268 26.4172C64.6409 25.6317 62.8343 25.4209 61.6571 26.0937C59.0144 27.6039 59.0422 32.667 61.5172 34.3184C62.9484 35.2733 65.3395 34.6519 66.3224 33.0246Z" fill="black"/>
<path fill-rule="evenodd" clip-rule="evenodd" d="M72.6354 25.0435C73.0113 24.3916 73.8964 23.9654 74.4537 23.796C77.356 22.9139 80.8794 23.9596 81.7269 25.8752C81.8735 26.2068 82.1932 27.5848 82.1932 30.4034C82.1932 31.0784 82.1904 31.6411 82.188 32.1101C82.1771 34.3057 82.1764 34.4479 82.5221 34.4479H83.825V36.7798H82.3797C82.3327 36.7797 82.2861 36.7797 82.24 36.7796C80.7668 36.7785 79.7702 36.7778 79.8154 34.4479C79.8154 34.4479 79.1627 35.4861 78.6498 35.9481C78.137 36.4102 77.1345 37.0109 75.7592 37.0109C73.9593 37.0109 72.2444 36.1352 71.5631 34.8392C71.1259 34.0075 70.957 32.3903 71.6926 31.2063C72.5037 29.9009 74.5831 28.8249 77.6241 28.6014C78.6001 28.5296 79.489 28.6014 79.489 28.6014V27.5311C79.489 26.6145 78.6498 25.5056 76.8315 25.5056C75.0132 25.5056 74.5936 25.7828 74.6402 27.3538H72.2158C72.1692 26.2911 72.2624 25.6904 72.6354 25.0435ZM79.5503 30.5883C79.5503 32.4828 78.8688 33.4431 78.3847 33.9613C77.1895 35.241 74.9743 35.3908 74.142 34.2386C73.6064 33.497 73.5359 32.6214 73.8156 32.0207C74.1814 31.2352 75.4635 30.6362 77.6854 30.5883H79.5503Z" fill="black"/>
<path d="M139.54 23.6112C138.276 23.892 137.585 24.4977 136.883 25.2284L136.09 26.1988V25.0436C136.09 24.1195 135.298 23.7037 134.645 23.7037H131.934V25.9677H133.558V36.6413H136.09V31.5587C136.09 28.4629 136.347 28.0632 137.582 26.8457C138.955 25.4925 140.826 25.3927 141.965 26.1988C142.617 26.6609 142.944 27.4002 142.897 28.4167V34.978C142.897 35.9021 142.944 36.6875 144.482 36.6413H147L146.907 34.4697H145.322V27.4463C145.322 26.9381 145.135 24.905 143.223 23.9809C142.44 23.602 140.706 23.3524 139.54 23.6112Z" fill="black"/>
<path d="M123.355 36.8743C124.619 36.5935 125.31 35.9878 126.013 35.2571L126.805 34.2867V35.4419C126.805 36.366 127.598 36.7818 128.251 36.7818H130.962V34.5178H129.337V23.8442H126.805V28.9268C126.805 32.0226 126.548 32.4223 125.313 33.6398C123.94 34.993 122.069 35.0928 120.931 34.2867C120.278 33.8246 119.952 33.0853 119.998 32.0688V25.5075C119.998 24.5834 119.952 23.798 118.413 23.8442H115.895L115.989 26.0159H117.574V33.0392C117.574 33.5474 117.76 35.5805 119.672 36.5046C120.456 36.8835 122.189 37.1331 123.355 36.8743Z" fill="black"/>
</svg>
