<svg width="71" height="41" viewBox="0 0 71 41" fill="none" xmlns="http://www.w3.org/2000/svg">
<g clip-path="url(#clip0_297_367)">
<path d="M33.1043 28.5907V41H35.5545H38.0046V28.5907V16.1813H35.5545H33.1043V28.5907Z" fill="white"/>
<path d="M5.46658 16.509C3.99649 16.8916 2.65707 17.7663 1.64434 18.9799C1.02363 19.7343 0.696947 20.2919 0.348481 21.2431C0.0871315 21.9538 0.0544628 22.1724 0.0544628 23.6156C0.0544628 25.0807 0.0762419 25.2666 0.37026 26.1194C1.15431 28.4154 3.11443 30.2412 5.40124 30.8316C6.19618 31.0394 6.63176 31.0503 14.3742 31.0503C23.2819 31.0503 23.1839 31.0394 23.968 31.6954C25.1223 32.6575 25.1223 34.5818 23.9789 35.533C23.173 36.1999 23.2601 36.1999 14.5812 36.1671C7.37225 36.1343 6.66443 36.1234 6.35952 35.9484C5.49925 35.4783 5.00922 34.8332 4.85676 33.9695L4.78054 33.565H2.37394H-0.0326538L0.0326836 34.4068C0.217806 36.8887 1.76413 39.1191 4.11627 40.289C5.58636 41.0106 5.48836 41.0106 15.2454 40.9778C23.4779 40.945 24.0442 40.934 24.556 40.7372C25.5905 40.3546 26.2439 40.0047 26.9844 39.4143C29.685 37.2932 30.5017 33.4666 28.9445 30.285C28.3456 29.0714 27.0062 27.6828 25.8627 27.0924C24.2402 26.2615 24.8827 26.3052 15.2999 26.2396C7.17624 26.185 6.67532 26.174 6.31597 25.9772C5.15078 25.354 4.6063 24.1951 4.94388 23.0362C5.15078 22.3146 5.62992 21.7351 6.26152 21.4399C6.74066 21.2103 6.81689 21.2103 14.7881 21.2103C20.6031 21.2103 22.9335 21.2431 23.2057 21.3415C23.9789 21.6039 24.5887 22.2927 24.7738 23.1127L24.9045 23.6703L27.3328 23.7031L29.7612 23.725L29.6959 22.9378C29.6196 22.0522 29.2494 20.8604 28.7812 19.9748C28.6178 19.6687 28.0624 18.9908 27.5506 18.477C26.4835 17.4055 25.5469 16.8479 24.2184 16.509C23.4126 16.3012 22.9879 16.2903 14.8207 16.3012C6.76244 16.3012 6.21796 16.3122 5.46658 16.509Z" fill="white"/>
<path d="M46.7381 16.5093C45.4422 16.8483 44.4948 17.4168 43.4276 18.4773C42.6436 19.2536 42.404 19.5925 42.0447 20.3469C41.2606 21.9869 41.2715 21.8667 41.2715 28.6016C41.2715 34.1995 41.2824 34.6805 41.4784 35.4459C41.8704 36.9656 42.7634 38.4088 43.9177 39.36C44.6255 39.9395 46.2371 40.7157 47.0865 40.8797C47.533 40.9563 50.3752 41 56.2338 41C65.3483 41 65.4028 40.9891 66.6224 40.4424C68.5172 39.5787 69.8566 38.1136 70.6407 36.0581L70.9456 35.26L70.9782 30.7445L71.0109 26.24H61.1014H51.181V28.6453V31.0507H58.7057H66.2304L66.1868 32.6688C66.1433 34.1995 66.1324 34.3197 65.8384 34.8117C65.4572 35.4568 64.8256 35.9269 64.1069 36.08C63.704 36.1675 61.2212 36.1893 55.7546 36.1675L47.9686 36.1347L47.4785 35.8395C46.8687 35.4787 46.5638 35.1616 46.3134 34.604C46.1391 34.2104 46.1174 33.6856 46.0847 28.8859C46.0411 22.8179 46.052 22.7413 46.8578 21.9432C47.1192 21.6699 47.5003 21.4184 47.7617 21.3419C48.0993 21.2435 50.2009 21.2107 56.2555 21.2107L64.3029 21.2216L64.793 21.4731C65.381 21.7683 65.9581 22.4899 66.0453 23.0475C66.0888 23.2661 66.1324 23.5176 66.1542 23.5832C66.1868 23.6925 66.7749 23.7253 68.6043 23.7253H71V23.2005C71 22.4352 70.6298 21.0904 70.1833 20.2376C69.2141 18.3899 67.4827 17.0232 65.4681 16.4984C64.695 16.3016 64.2049 16.2907 56.0922 16.3016C48.0339 16.3016 47.4894 16.3125 46.7381 16.5093Z" fill="white"/>
<path d="M29.8048 5.66472C26.7121 8.76979 24.1749 11.3501 24.1749 11.4047C24.1749 11.4485 25.6776 11.4813 27.518 11.4813H30.8611L33.1261 9.22899C35.2169 7.12979 35.402 6.97672 35.6851 7.04232C35.892 7.09699 36.687 7.82952 38.1135 9.30552L40.237 11.4922L43.591 11.4594L46.945 11.4266L41.2824 5.70845C38.168 2.57059 35.5762 0.00125408 35.5327 0.00125408C35.4782 0.00125408 32.9083 2.54872 29.8048 5.66472Z" fill="#E52E40"/>
</g>
<defs>
<clipPath id="clip0_297_367">
<rect width="71" height="41" fill="white"/>
</clipPath>
</defs>
</svg>
